<svg width="408" height="53" viewBox="0 0 408 53" fill="none" xmlns="http://www.w3.org/2000/svg">
<path d="M9.944 34.816C10.808 34.88 11.56 34.944 12.2 35.008C12.872 35.072 13.496 35.152 14.072 35.248C14.68 35.312 15.272 35.392 15.848 35.488C16.456 35.552 17.096 35.632 17.768 35.728C20.264 36.08 22.216 37.024 23.624 38.56C25.064 40.064 25.784 41.936 25.784 44.176C25.784 46.896 24.664 48.96 22.424 50.368C20.184 51.776 16.888 52.48 12.536 52.48C8.536 52.48 5.448 51.888 3.272 50.704C1.128 49.552 0.0560001 47.904 0.0560001 45.76C0.0560001 44.096 0.488 42.832 1.352 41.968C2.216 41.136 3.304 40.72 4.616 40.72C5.448 40.72 6.248 40.88 7.016 41.2C7.816 41.552 8.488 42.048 9.032 42.688C8.2 42.848 7.512 43.216 6.968 43.792C6.456 44.4 6.2 45.104 6.2 45.904C6.2 47.184 6.76 48.16 7.88 48.832C9.032 49.536 10.712 49.888 12.92 49.888C17.72 49.888 20.12 48.368 20.12 45.328C20.12 44.24 19.752 43.296 19.016 42.496C18.312 41.728 17.288 41.264 15.944 41.104L7.544 39.952C3.992 39.472 2.216 37.888 2.216 35.2C2.216 33.888 2.632 32.816 3.464 31.984C4.328 31.152 5.544 30.576 7.112 30.256V30.064C6.376 29.776 5.704 29.376 5.096 28.864C4.52 28.352 4.008 27.76 3.56 27.088C3.112 26.416 2.76 25.696 2.504 24.928C2.28 24.128 2.168 23.312 2.168 22.48C2.168 21.296 2.408 20.192 2.888 19.168C3.4 18.112 4.088 17.216 4.952 16.48C5.848 15.744 6.888 15.168 8.072 14.752C9.288 14.304 10.6 14.08 12.008 14.08C13.384 14.08 14.728 14.288 16.04 14.704C17.352 15.12 18.472 15.696 19.4 16.432C20.136 15.984 20.776 15.616 21.32 15.328C21.864 15.008 22.36 14.768 22.808 14.608C23.288 14.416 23.72 14.288 24.104 14.224C24.488 14.128 24.872 14.08 25.256 14.08C26.472 14.08 27.448 14.352 28.184 14.896C28.952 15.44 29.336 16.16 29.336 17.056C29.336 17.728 29.128 18.288 28.712 18.736C28.296 19.152 27.752 19.36 27.08 19.36C26.6 19.36 26.216 19.264 25.928 19.072C25.64 18.848 25.352 18.608 25.064 18.352C24.808 18.064 24.536 17.824 24.248 17.632C23.96 17.408 23.576 17.296 23.096 17.296C22.424 17.296 21.784 17.728 21.176 18.592C21.496 19.136 21.72 19.728 21.848 20.368C21.976 20.976 22.04 21.696 22.04 22.528C22.04 23.744 21.848 24.864 21.464 25.888C21.08 26.912 20.472 27.824 19.64 28.624C18.84 29.392 17.8 30.048 16.52 30.592C15.24 31.136 13.688 31.504 11.864 31.696C10.328 31.856 9.256 32.064 8.648 32.32C8.072 32.576 7.784 32.96 7.784 33.472C7.784 34.24 8.504 34.688 9.944 34.816ZM12.248 28.96C13.272 28.96 14.072 28.416 14.648 27.328C15.224 26.24 15.512 24.72 15.512 22.768C15.512 20.784 15.224 19.264 14.648 18.208C14.072 17.12 13.256 16.576 12.2 16.576C11.112 16.576 10.248 17.12 9.608 18.208C8.968 19.296 8.648 20.784 8.648 22.672C8.648 24.592 8.968 26.128 9.608 27.28C10.28 28.4 11.16 28.96 12.248 28.96ZM50.6169 22.432C50.6169 21.152 50.5849 20.144 50.5209 19.408C50.4569 18.64 50.2809 18.064 49.9929 17.68C49.7049 17.264 49.2729 16.992 48.6969 16.864C48.1529 16.704 47.4009 16.576 46.4409 16.48V14.56H57.2889V29.104C57.2889 31.056 57.3049 32.592 57.3369 33.712C57.4009 34.8 57.4969 35.616 57.6249 36.16C57.7209 36.576 57.8329 36.912 57.9609 37.168C58.0889 37.392 58.2969 37.584 58.5849 37.744C58.8729 37.872 59.2569 37.968 59.7369 38.032C60.2489 38.064 60.9049 38.08 61.7049 38.08V39.952L52.1529 40.528L51.6249 36.256H51.4329C50.6009 37.6 49.4329 38.64 47.9289 39.376C46.4249 40.112 44.7449 40.48 42.8889 40.48C39.4649 40.48 36.8569 39.264 35.0649 36.832C33.6889 34.976 33.0009 32.336 33.0009 28.912V22.432C33.0009 21.12 32.9689 20.096 32.9049 19.36C32.8409 18.592 32.6649 18.016 32.3769 17.632C32.1209 17.248 31.7209 16.992 31.1769 16.864C30.6329 16.704 29.8809 16.576 28.9209 16.48V14.56H39.6729V28.144C39.6729 31.376 40.0729 33.728 40.8729 35.2C41.6729 36.64 42.9529 37.36 44.7129 37.36C46.6009 37.36 48.0569 36.496 49.0809 34.768C50.1049 33.104 50.6169 30.656 50.6169 27.424V22.432ZM74.6641 32.128C74.6641 33.408 74.7121 34.432 74.8081 35.2C74.9041 35.968 75.0961 36.56 75.3841 36.976C75.6721 37.392 76.0881 37.68 76.6321 37.84C77.1761 37.968 77.9121 38.048 78.8401 38.08V40H63.7201V38.08C64.6161 38.048 65.3361 37.952 65.8801 37.792C66.4561 37.6 66.8881 37.312 67.1761 36.928C67.4961 36.512 67.7041 35.952 67.8001 35.248C67.9281 34.512 67.9921 33.584 67.9921 32.464V26.56C67.9921 24.704 67.9601 23.184 67.8961 22C67.8321 20.784 67.7521 19.952 67.6561 19.504C67.4961 18.704 67.1281 18.176 66.5521 17.92C66.0081 17.664 65.0001 17.536 63.5281 17.536V15.904L74.6641 14.08V32.128ZM67.6081 3.904C67.6081 2.848 67.9601 1.968 68.6641 1.264C69.4001 0.527998 70.2801 0.159998 71.3041 0.159998C72.3601 0.159998 73.2401 0.527998 73.9441 1.264C74.6801 1.968 75.0481 2.848 75.0481 3.904C75.0481 4.928 74.6801 5.808 73.9441 6.544C73.2401 7.248 72.3601 7.6 71.3041 7.6C70.2801 7.6 69.4001 7.248 68.6641 6.544C67.9601 5.808 67.6081 4.928 67.6081 3.904ZM91.5279 32.128C91.5279 33.408 91.5759 34.432 91.6719 35.2C91.7679 35.968 91.9599 36.56 92.2479 36.976C92.5359 37.392 92.9519 37.68 93.4959 37.84C94.0399 37.968 94.7759 38.048 95.7039 38.08V40H80.5839V38.08C81.4799 38.048 82.1999 37.952 82.7439 37.792C83.3199 37.6 83.7519 37.312 84.0399 36.928C84.3599 36.512 84.5679 35.952 84.6639 35.248C84.7919 34.512 84.8559 33.584 84.8559 32.464V12.64C84.8559 10.784 84.8239 9.264 84.7599 8.08C84.6959 6.864 84.6159 6.032 84.5199 5.584C84.3599 4.784 83.9919 4.256 83.4159 4C82.8719 3.744 81.8639 3.616 80.3919 3.616V1.984L91.5279 0.159998V32.128ZM108.446 32.128C108.446 33.44 108.478 34.48 108.542 35.248C108.638 35.984 108.814 36.56 109.07 36.976C109.358 37.392 109.774 37.664 110.318 37.792C110.894 37.92 111.662 38.016 112.622 38.08V40H97.5024V38.08C98.4624 38.016 99.2304 37.92 99.8064 37.792C100.382 37.664 100.814 37.408 101.102 37.024C101.39 36.64 101.566 36.096 101.63 35.392C101.726 34.656 101.774 33.68 101.774 32.464V12.736C101.774 10.816 101.742 9.312 101.678 8.224C101.646 7.104 101.566 6.256 101.438 5.68C101.342 5.264 101.23 4.944 101.102 4.72C100.974 4.464 100.766 4.272 100.478 4.144C100.222 3.984 99.8544 3.888 99.3744 3.856C98.9264 3.792 98.3504 3.76 97.6464 3.76V1.984L108.35 0.159998V17.872H108.542C109.534 16.56 110.638 15.6 111.854 14.992C113.102 14.384 114.59 14.08 116.318 14.08C119.454 14.08 121.886 15.04 123.614 16.96C124.446 17.92 125.102 19.088 125.582 20.464C126.062 21.808 126.302 23.216 126.302 24.688V32.128C126.302 33.472 126.334 34.528 126.398 35.296C126.462 36.032 126.622 36.608 126.878 37.024C127.166 37.408 127.582 37.664 128.126 37.792C128.67 37.92 129.422 38.016 130.382 38.08V40H115.358V38.08C116.318 38.048 117.07 37.968 117.614 37.84C118.19 37.68 118.622 37.408 118.91 37.024C119.23 36.64 119.422 36.096 119.486 35.392C119.582 34.656 119.63 33.68 119.63 32.464V26.56C119.63 23.168 119.262 20.768 118.526 19.36C117.79 17.952 116.526 17.248 114.734 17.248C112.814 17.248 111.294 17.952 110.174 19.36C109.63 20.096 109.198 21.008 108.878 22.096C108.59 23.184 108.446 24.4 108.446 25.744V32.128ZM156.92 35.536C154.008 38.832 150.376 40.48 146.024 40.48C144.04 40.48 142.232 40.176 140.6 39.568C139 38.928 137.624 38.048 136.472 36.928C135.32 35.776 134.424 34.416 133.784 32.848C133.144 31.28 132.824 29.536 132.824 27.616C132.824 25.632 133.16 23.824 133.832 22.192C134.504 20.528 135.448 19.104 136.664 17.92C137.912 16.704 139.368 15.76 141.032 15.088C142.728 14.416 144.584 14.08 146.6 14.08C149.992 14.08 152.632 14.992 154.52 16.816C156.408 18.64 157.352 21.2 157.352 24.496C157.352 25.008 157.272 25.328 157.112 25.456C156.952 25.552 156.504 25.6 155.768 25.6H140.312C140.184 25.888 140.12 26.416 140.12 27.184C140.12 30.32 140.792 32.8 142.136 34.624C143.512 36.448 145.368 37.36 147.704 37.36C149.048 37.36 150.376 37.056 151.688 36.448C153.032 35.84 154.328 34.976 155.576 33.856L156.92 35.536ZM147.608 22.912C148.888 22.912 149.704 22.848 150.056 22.72C150.44 22.56 150.632 22.208 150.632 21.664C150.632 20.256 150.232 19.104 149.432 18.208C148.632 17.312 147.624 16.864 146.408 16.864C145.032 16.864 143.8 17.44 142.712 18.592C141.656 19.712 140.968 21.152 140.648 22.912H147.608ZM171.462 32.56C171.462 33.808 171.51 34.8 171.606 35.536C171.734 36.24 171.974 36.784 172.326 37.168C172.678 37.552 173.19 37.808 173.862 37.936C174.534 38.032 175.43 38.08 176.55 38.08V40H160.518V38.08C161.478 38.016 162.246 37.92 162.822 37.792C163.398 37.664 163.83 37.408 164.118 37.024C164.406 36.64 164.582 36.096 164.646 35.392C164.742 34.656 164.79 33.68 164.79 32.464V26.608C164.79 24.624 164.742 23.04 164.646 21.856C164.55 20.672 164.342 19.76 164.022 19.12C163.702 18.48 163.238 18.064 162.63 17.872C162.054 17.648 161.286 17.536 160.326 17.536V15.856L169.926 14.08L170.694 19.6H170.886C171.75 17.904 172.886 16.56 174.294 15.568C175.702 14.576 177.19 14.08 178.758 14.08C179.974 14.08 180.966 14.384 181.734 14.992C182.502 15.6 182.886 16.368 182.886 17.296C182.886 18.32 182.582 19.184 181.974 19.888C181.398 20.592 180.598 20.944 179.574 20.944C179.094 20.944 178.662 20.848 178.278 20.656C177.894 20.464 177.542 20.256 177.222 20.032C176.934 19.776 176.63 19.552 176.31 19.36C176.022 19.136 175.718 19.024 175.398 19.024C174.79 19.024 174.214 19.424 173.67 20.224C173.126 21.024 172.678 22.096 172.326 23.44C172.07 24.4 171.862 25.488 171.702 26.704C171.542 27.888 171.462 29.072 171.462 30.256V32.56ZM195.368 32.08C195.368 33.424 195.4 34.48 195.464 35.248C195.528 36.016 195.704 36.608 195.992 37.024C196.28 37.408 196.696 37.664 197.24 37.792C197.784 37.92 198.536 38.016 199.496 38.08V40H184.328V38.08C185.288 38.016 186.056 37.92 186.632 37.792C187.208 37.664 187.64 37.408 187.928 37.024C188.216 36.64 188.408 36.096 188.504 35.392C188.6 34.656 188.648 33.68 188.648 32.464V26.512C188.648 24.688 188.616 23.168 188.552 21.952C188.52 20.736 188.44 19.904 188.312 19.456C188.216 19.04 188.088 18.72 187.928 18.496C187.8 18.24 187.576 18.048 187.256 17.92C186.968 17.76 186.584 17.664 186.104 17.632C185.624 17.568 185 17.536 184.232 17.536V15.904L193.496 14.08L194.072 18.256H194.36C195.704 16.752 197.048 15.68 198.392 15.04C199.768 14.4 201.352 14.08 203.144 14.08C205.256 14.08 207 14.448 208.376 15.184C209.752 15.92 210.792 16.976 211.496 18.352H211.688C212.84 17.008 214.216 15.968 215.816 15.232C217.416 14.464 219.128 14.08 220.952 14.08C222.872 14.08 224.536 14.32 225.944 14.8C227.384 15.28 228.504 15.968 229.304 16.864C229.944 17.6 230.408 18.56 230.696 19.744C231.016 20.928 231.176 22.576 231.176 24.688V32.08C231.176 33.392 231.208 34.432 231.272 35.2C231.368 35.968 231.56 36.56 231.848 36.976C232.136 37.392 232.552 37.664 233.096 37.792C233.64 37.92 234.392 38.016 235.352 38.08V40H220.184V38.08C221.144 38.048 221.896 37.968 222.44 37.84C223.016 37.68 223.448 37.408 223.736 37.024C224.056 36.608 224.248 36.048 224.312 35.344C224.408 34.64 224.456 33.68 224.456 32.464V26.176C224.456 24.512 224.36 23.104 224.168 21.952C223.976 20.8 223.672 19.872 223.256 19.168C222.84 18.464 222.28 17.968 221.576 17.68C220.904 17.36 220.072 17.2 219.08 17.2C217.96 17.2 217.032 17.472 216.296 18.016C215.592 18.56 215 19.264 214.52 20.128C213.688 21.632 213.272 23.504 213.272 25.744V32.08C213.272 33.392 213.304 34.432 213.368 35.2C213.432 35.968 213.608 36.56 213.896 36.976C214.184 37.392 214.6 37.664 215.144 37.792C215.72 37.92 216.504 38.016 217.496 38.08V40H202.28V38.08C203.24 38.016 203.992 37.92 204.536 37.792C205.112 37.664 205.544 37.408 205.832 37.024C206.152 36.64 206.344 36.096 206.408 35.392C206.504 34.656 206.552 33.68 206.552 32.464V26.176C206.552 24.512 206.456 23.104 206.264 21.952C206.072 20.8 205.752 19.872 205.304 19.168C204.888 18.464 204.328 17.968 203.624 17.68C202.92 17.36 202.04 17.2 200.984 17.2C199.928 17.2 199.048 17.456 198.344 17.968C197.672 18.48 197.112 19.168 196.664 20.032C196.248 20.8 195.928 21.68 195.704 22.672C195.48 23.664 195.368 24.688 195.368 25.744V32.08ZM262.014 35.536C259.102 38.832 255.47 40.48 251.118 40.48C249.134 40.48 247.326 40.176 245.694 39.568C244.094 38.928 242.718 38.048 241.566 36.928C240.414 35.776 239.518 34.416 238.878 32.848C238.238 31.28 237.918 29.536 237.918 27.616C237.918 25.632 238.254 23.824 238.926 22.192C239.598 20.528 240.542 19.104 241.758 17.92C243.006 16.704 244.462 15.76 246.126 15.088C247.822 14.416 249.678 14.08 251.694 14.08C255.086 14.08 257.726 14.992 259.614 16.816C261.502 18.64 262.446 21.2 262.446 24.496C262.446 25.008 262.366 25.328 262.206 25.456C262.046 25.552 261.598 25.6 260.862 25.6H245.406C245.278 25.888 245.214 26.416 245.214 27.184C245.214 30.32 245.886 32.8 247.23 34.624C248.606 36.448 250.462 37.36 252.798 37.36C254.142 37.36 255.47 37.056 256.782 36.448C258.126 35.84 259.422 34.976 260.67 33.856L262.014 35.536ZM252.702 22.912C253.982 22.912 254.798 22.848 255.15 22.72C255.534 22.56 255.726 22.208 255.726 21.664C255.726 20.256 255.326 19.104 254.526 18.208C253.726 17.312 252.718 16.864 251.502 16.864C250.126 16.864 248.894 17.44 247.806 18.592C246.75 19.712 246.062 21.152 245.742 22.912H252.702ZM288.778 32.128C288.778 33.408 288.826 34.432 288.922 35.2C289.018 35.968 289.21 36.56 289.498 36.976C289.786 37.392 290.202 37.68 290.746 37.84C291.29 37.968 292.026 38.048 292.954 38.08V40H277.834V38.08C278.73 38.048 279.45 37.952 279.994 37.792C280.57 37.6 281.002 37.312 281.29 36.928C281.61 36.512 281.818 35.952 281.914 35.248C282.042 34.512 282.106 33.584 282.106 32.464V12.64C282.106 10.784 282.074 9.264 282.01 8.08C281.946 6.864 281.866 6.032 281.77 5.584C281.61 4.784 281.242 4.256 280.666 4C280.122 3.744 279.114 3.616 277.642 3.616V1.984L288.778 0.159998V32.128ZM309.728 14.08C311.648 14.08 313.456 14.416 315.152 15.088C316.88 15.728 318.384 16.624 319.664 17.776C320.976 18.928 322 20.304 322.736 21.904C323.504 23.472 323.888 25.2 323.888 27.088C323.888 29.04 323.504 30.832 322.736 32.464C322 34.096 320.976 35.504 319.664 36.688C318.384 37.872 316.88 38.8 315.152 39.472C313.456 40.144 311.648 40.48 309.728 40.48C307.84 40.48 306.048 40.16 304.352 39.52C302.656 38.848 301.168 37.92 299.888 36.736C298.608 35.552 297.6 34.144 296.864 32.512C296.128 30.848 295.76 29.04 295.76 27.088C295.76 25.2 296.128 23.456 296.864 21.856C297.6 20.256 298.608 18.88 299.888 17.728C301.168 16.576 302.656 15.68 304.352 15.04C306.048 14.4 307.84 14.08 309.728 14.08ZM309.728 16.864C308.768 16.864 307.888 17.12 307.088 17.632C306.288 18.112 305.6 18.8 305.024 19.696C304.48 20.592 304.048 21.68 303.728 22.96C303.44 24.208 303.296 25.6 303.296 27.136C303.296 28.736 303.44 30.176 303.728 31.456C304.048 32.736 304.48 33.824 305.024 34.72C305.6 35.616 306.272 36.32 307.04 36.832C307.84 37.312 308.736 37.552 309.728 37.552C310.72 37.552 311.616 37.312 312.416 36.832C313.248 36.32 313.952 35.616 314.528 34.72C315.104 33.792 315.552 32.688 315.872 31.408C316.192 30.128 316.352 28.704 316.352 27.136C316.352 25.6 316.192 24.208 315.872 22.96C315.552 21.712 315.104 20.64 314.528 19.744C313.952 18.816 313.248 18.112 312.416 17.632C311.616 17.12 310.72 16.864 309.728 16.864ZM336.136 17.68H336.328C338.44 15.28 341.192 14.08 344.584 14.08C346.44 14.08 348.136 14.416 349.672 15.088C351.24 15.728 352.584 16.64 353.704 17.824C354.856 18.976 355.736 20.368 356.344 22C356.984 23.6 357.304 25.36 357.304 27.28C357.304 29.2 356.984 30.96 356.344 32.56C355.736 34.16 354.872 35.552 353.752 36.736C352.632 37.92 351.288 38.848 349.72 39.52C348.184 40.16 346.504 40.48 344.68 40.48C341.576 40.48 339.208 39.424 337.576 37.312H337.384V43.984C337.384 45.264 337.448 46.288 337.576 47.056C337.704 47.824 337.976 48.416 338.392 48.832C338.808 49.248 339.384 49.536 340.12 49.696C340.888 49.856 341.896 49.952 343.144 49.984V52H326.584V49.984C327.448 49.952 328.152 49.856 328.696 49.696C329.24 49.536 329.656 49.248 329.944 48.832C330.264 48.416 330.472 47.84 330.568 47.104C330.696 46.4 330.76 45.472 330.76 44.32V26.464C330.76 24.992 330.728 23.6 330.664 22.288C330.6 20.944 330.52 20 330.424 19.456C330.264 18.72 329.896 18.208 329.32 17.92C328.776 17.632 327.832 17.488 326.488 17.488V15.616L336.136 14.272V17.68ZM344.296 16.816C343.272 16.816 342.296 17.04 341.368 17.488C340.44 17.936 339.704 18.528 339.16 19.264C338.616 20 338.2 20.928 337.912 22.048C337.624 23.136 337.48 24.32 337.48 25.6V28.864C337.48 31.136 338.04 33.072 339.16 34.672C340.376 36.432 342.088 37.312 344.296 37.312C346.248 37.312 347.688 36.512 348.616 34.912C349.576 33.28 350.056 30.768 350.056 27.376C350.056 20.336 348.136 16.816 344.296 16.816ZM385.061 35.536C382.149 38.832 378.517 40.48 374.165 40.48C372.181 40.48 370.373 40.176 368.741 39.568C367.141 38.928 365.765 38.048 364.613 36.928C363.461 35.776 362.565 34.416 361.925 32.848C361.285 31.28 360.965 29.536 360.965 27.616C360.965 25.632 361.301 23.824 361.973 22.192C362.645 20.528 363.589 19.104 364.805 17.92C366.053 16.704 367.509 15.76 369.173 15.088C370.869 14.416 372.725 14.08 374.741 14.08C378.133 14.08 380.773 14.992 382.661 16.816C384.549 18.64 385.493 21.2 385.493 24.496C385.493 25.008 385.413 25.328 385.253 25.456C385.093 25.552 384.645 25.6 383.909 25.6H368.453C368.325 25.888 368.261 26.416 368.261 27.184C368.261 30.32 368.933 32.8 370.277 34.624C371.653 36.448 373.509 37.36 375.845 37.36C377.189 37.36 378.517 37.056 379.829 36.448C381.173 35.84 382.469 34.976 383.717 33.856L385.061 35.536ZM375.749 22.912C377.029 22.912 377.845 22.848 378.197 22.72C378.581 22.56 378.773 22.208 378.773 21.664C378.773 20.256 378.373 19.104 377.573 18.208C376.773 17.312 375.765 16.864 374.549 16.864C373.173 16.864 371.941 17.44 370.853 18.592C369.797 19.712 369.109 21.152 368.789 22.912H375.749ZM391.299 40H389.811V31.264H391.827C392.371 33.568 393.155 35.248 394.179 36.304C395.203 37.36 396.531 37.888 398.163 37.888C399.347 37.888 400.259 37.648 400.899 37.168C401.571 36.656 401.907 35.968 401.907 35.104C401.907 34.208 401.507 33.344 400.707 32.512C399.907 31.648 398.611 30.736 396.819 29.776C394.387 28.464 392.643 27.168 391.587 25.888C390.531 24.576 390.003 23.104 390.003 21.472C390.003 20.416 390.195 19.44 390.579 18.544C390.995 17.616 391.539 16.816 392.211 16.144C392.915 15.472 393.747 14.96 394.707 14.608C395.667 14.224 396.707 14.032 397.827 14.032C398.819 14.032 399.795 14.176 400.755 14.464C401.747 14.752 402.611 15.152 403.347 15.664L404.211 14.512H405.459V21.76H403.587C402.851 19.936 402.083 18.624 401.283 17.824C400.515 17.024 399.571 16.624 398.451 16.624C397.555 16.624 396.835 16.864 396.291 17.344C395.779 17.824 395.523 18.464 395.523 19.264C395.523 20.16 395.907 21.008 396.675 21.808C397.475 22.608 398.787 23.488 400.611 24.448C401.891 25.152 402.995 25.84 403.923 26.512C404.851 27.184 405.603 27.872 406.179 28.576C406.755 29.248 407.171 29.968 407.427 30.736C407.715 31.472 407.859 32.272 407.859 33.136C407.859 34.256 407.651 35.264 407.235 36.16C406.819 37.056 406.227 37.824 405.459 38.464C404.691 39.104 403.763 39.6 402.675 39.952C401.619 40.304 400.435 40.48 399.123 40.48C397.747 40.48 396.467 40.304 395.283 39.952C394.099 39.568 393.123 39.024 392.355 38.32L391.299 40Z" fill="#141414"/>
</svg>
